<?xml version="1.0" encoding="UTF-8" standalone="no"?>
<!-- Created with Inkscape (http://www.inkscape.org/) -->

<svg
   xmlns:dc="http://purl.org/dc/elements/1.1/"
   xmlns:cc="http://creativecommons.org/ns#"
   xmlns:rdf="http://www.w3.org/1999/02/22-rdf-syntax-ns#"
   xmlns:svg="http://www.w3.org/2000/svg"
   xmlns="http://www.w3.org/2000/svg"
   xmlns:sodipodi="http://sodipodi.sourceforge.net/DTD/sodipodi-0.dtd"
   xmlns:inkscape="http://www.inkscape.org/namespaces/inkscape"
   width="166.53313mm"
   height="17.274435mm"
   viewBox="0 0 590.078 61.208626"
   id="svg2"
   version="1.1"
   inkscape:version="0.91 r13725"
   sodipodi:docname="mockup.svg">
  <defs
     id="defs4" />
  <sodipodi:namedview
     id="base"
     pagecolor="#ffffff"
     bordercolor="#666666"
     borderopacity="1.0"
     inkscape:pageopacity="0.0"
     inkscape:pageshadow="2"
     inkscape:zoom="1.979899"
     inkscape:cx="309.05823"
     inkscape:cy="-43.171719"
     inkscape:document-units="px"
     inkscape:current-layer="layer1"
     showgrid="true"
     showguides="true"
     inkscape:window-width="1920"
     inkscape:window-height="1016"
     inkscape:window-x="0"
     inkscape:window-y="27"
     inkscape:window-maximized="1"
     borderlayer="true"
     fit-margin-top="4"
     fit-margin-left="1"
     fit-margin-right="1"
     fit-margin-bottom="3">
    <inkscape:grid
       type="xygrid"
       id="grid4138"
       originx="-36.456689"
       originy="-973.58509" />
  </sodipodi:namedview>
  <metadata
     id="metadata7">
    <rdf:RDF>
      <cc:Work
         rdf:about="">
        <dc:format>image/svg+xml</dc:format>
        <dc:type
           rdf:resource="http://purl.org/dc/dcmitype/StillImage" />
        <dc:title></dc:title>
      </cc:Work>
    </rdf:RDF>
  </metadata>
  <g
     inkscape:label="Layer 1"
     inkscape:groupmode="layer"
     id="layer1"
     transform="translate(-36.456693,-17.568433)">
    <rect
       style="fill:none;fill-opacity:1;stroke:#000000;stroke-width:1;stroke-miterlimit:4;stroke-dasharray:none;stroke-dashoffset:0;stroke-opacity:1"
       id="rect4145"
       width="95"
       height="35"
       x="90"
       y="32.362206" />
    <rect
       style="fill:none;fill-opacity:1;stroke:#000000;stroke-width:1;stroke-miterlimit:4;stroke-dasharray:none;stroke-dashoffset:0;stroke-opacity:1"
       id="rect4145-9"
       width="95"
       height="35"
       x="186.98662"
       y="32.384529" />
    <rect
       style="fill:none;fill-opacity:1;stroke:#000000;stroke-width:1;stroke-miterlimit:4;stroke-dasharray:none;stroke-dashoffset:0;stroke-opacity:1"
       id="rect4145-1"
       width="95"
       height="35"
       x="284.01712"
       y="32.370178" />
    <rect
       style="fill:none;fill-opacity:1;stroke:#000000;stroke-width:1;stroke-miterlimit:4;stroke-dasharray:none;stroke-dashoffset:0;stroke-opacity:1"
       id="rect4145-19"
       width="95"
       height="35"
       x="381.00696"
       y="32.360935" />
    <rect
       style="fill:none;fill-opacity:1;stroke:#000000;stroke-width:1;stroke-miterlimit:4;stroke-dasharray:none;stroke-dashoffset:0;stroke-opacity:1"
       id="rect4145-8-4"
       width="47.52195"
       height="35.289806"
       x="40.525497"
       y="32.357327" />
    <path
       style="fill:none;fill-rule:evenodd;stroke:#000000;stroke-width:1px;stroke-linecap:butt;stroke-linejoin:miter;stroke-opacity:1"
       d="m 40,42.362205 48,0 0,0"
       id="path4197"
       inkscape:connector-curvature="0" />
    <path
       style="fill:none;fill-rule:evenodd;stroke:#000000;stroke-width:1px;stroke-linecap:butt;stroke-linejoin:miter;stroke-opacity:1"
       d="m 90,42.362205 95,0"
       id="path4199"
       inkscape:connector-curvature="0" />
    <path
       style="fill:none;fill-rule:evenodd;stroke:#000000;stroke-width:1px;stroke-linecap:butt;stroke-linejoin:miter;stroke-opacity:1"
       d="m 187,42.362205 95,0"
       id="path4201"
       inkscape:connector-curvature="0" />
    <path
       style="fill:none;fill-rule:evenodd;stroke:#000000;stroke-width:1px;stroke-linecap:butt;stroke-linejoin:miter;stroke-opacity:1"
       d="m 284,42.362205 95,0"
       id="path4203"
       inkscape:connector-curvature="0" />
    <path
       style="fill:none;fill-rule:evenodd;stroke:#000000;stroke-width:1px;stroke-linecap:butt;stroke-linejoin:miter;stroke-opacity:1"
       d="m 381,42.362205 95,0"
       id="path4205"
       inkscape:connector-curvature="0" />
    <ellipse
       style="fill:none;fill-opacity:1;stroke:#000000;stroke-width:1;stroke-miterlimit:4;stroke-dasharray:none;stroke-dashoffset:0;stroke-opacity:1"
       id="path4211"
       cx="102.50578"
       cy="51.392323"
       rx="7"
       ry="6.5" />
    <ellipse
       style="fill:none;fill-opacity:1;stroke:#000000;stroke-width:1;stroke-miterlimit:4;stroke-dasharray:none;stroke-dashoffset:0;stroke-opacity:1"
       id="path4211-2"
       cx="122.46303"
       cy="51.376938"
       rx="7"
       ry="6.5" />
    <ellipse
       style="fill:none;fill-opacity:1;stroke:#000000;stroke-width:1;stroke-miterlimit:4;stroke-dasharray:none;stroke-dashoffset:0;stroke-opacity:1"
       id="path4211-4"
       cx="142.57274"
       cy="51.47271"
       rx="7"
       ry="6.5" />
    <text
       xml:space="preserve"
       style="font-style:normal;font-weight:normal;font-size:5px;line-height:125%;font-family:sans-serif;letter-spacing:0px;word-spacing:0px;fill:#000000;fill-opacity:1;stroke:none;stroke-width:1px;stroke-linecap:butt;stroke-linejoin:miter;stroke-opacity:1"
       x="42.769127"
       y="38.758869"
       id="text4234"
       sodipodi:linespacing="125%"><tspan
         sodipodi:role="line"
         id="tspan4236"
         x="42.769127"
         y="38.758869"
         style="font-style:normal;font-variant:normal;font-weight:normal;font-stretch:normal;font-size:7.5px;font-family:Cabin;-inkscape-font-specification:Cabin">Input source</tspan></text>
    <text
       xml:space="preserve"
       style="font-style:normal;font-weight:normal;font-size:5px;line-height:125%;font-family:sans-serif;letter-spacing:0px;word-spacing:0px;fill:#000000;fill-opacity:1;stroke:none;stroke-width:1px;stroke-linecap:butt;stroke-linejoin:miter;stroke-opacity:1"
       x="92.795143"
       y="39.01144"
       id="text4234-3"
       sodipodi:linespacing="125%"><tspan
         sodipodi:role="line"
         id="tspan4236-1"
         x="92.795143"
         y="39.01144"
         style="font-style:normal;font-variant:normal;font-weight:normal;font-stretch:normal;font-size:7.5px;font-family:Cabin;-inkscape-font-specification:Cabin">Noise Gate</tspan></text>
    <text
       xml:space="preserve"
       style="font-style:normal;font-weight:normal;font-size:5px;line-height:125%;font-family:sans-serif;letter-spacing:0px;word-spacing:0px;fill:#000000;fill-opacity:1;stroke:none;stroke-width:1px;stroke-linecap:butt;stroke-linejoin:miter;stroke-opacity:1"
       x="189.18411"
       y="39.339485"
       id="text4234-0"
       sodipodi:linespacing="125%"><tspan
         sodipodi:role="line"
         id="tspan4236-0"
         x="189.18411"
         y="39.339485"
         style="font-style:normal;font-variant:normal;font-weight:normal;font-stretch:normal;font-size:7.5px;font-family:Cabin;-inkscape-font-specification:Cabin">Noise Suppresion</tspan></text>
    <text
       xml:space="preserve"
       style="font-style:normal;font-weight:normal;font-size:5px;line-height:125%;font-family:sans-serif;letter-spacing:0px;word-spacing:0px;fill:#000000;fill-opacity:1;stroke:none;stroke-width:1px;stroke-linecap:butt;stroke-linejoin:miter;stroke-opacity:1"
       x="285.72409"
       y="39.718292"
       id="text4234-5"
       sodipodi:linespacing="125%"><tspan
         sodipodi:role="line"
         id="tspan4236-9"
         x="285.72409"
         y="39.718292"
         style="font-style:normal;font-variant:normal;font-weight:normal;font-stretch:normal;font-size:7.5px;font-family:Cabin;-inkscape-font-specification:Cabin">Echo Cancellation</tspan></text>
    <text
       xml:space="preserve"
       style="font-style:normal;font-weight:normal;font-size:5px;line-height:125%;font-family:sans-serif;letter-spacing:0px;word-spacing:0px;fill:#000000;fill-opacity:1;stroke:none;stroke-width:1px;stroke-linecap:butt;stroke-linejoin:miter;stroke-opacity:1"
       x="382.67984"
       y="39.562473"
       id="text4234-7"
       sodipodi:linespacing="125%"><tspan
         sodipodi:role="line"
         id="tspan4236-7"
         x="382.67984"
         y="39.562473"
         style="font-style:normal;font-variant:normal;font-weight:normal;font-stretch:normal;font-size:7.5px;font-family:Cabin;-inkscape-font-specification:Cabin">Ducker</tspan></text>
    <rect
       style="fill:none;fill-opacity:1;stroke:#000000;stroke-width:1;stroke-miterlimit:4;stroke-dasharray:none;stroke-dashoffset:0;stroke-opacity:1"
       id="rect4288"
       width="8"
       height="6"
       x="175"
       y="34.362206" />
    <text
       xml:space="preserve"
       style="font-style:normal;font-weight:normal;font-size:13.75px;line-height:125%;font-family:sans-serif;letter-spacing:0px;word-spacing:0px;fill:#000000;fill-opacity:1;stroke:none;stroke-width:1px;stroke-linecap:butt;stroke-linejoin:miter;stroke-opacity:1"
       x="176.28572"
       y="38.424706"
       id="text4290"
       sodipodi:linespacing="125%"><tspan
         sodipodi:role="line"
         id="tspan4292"
         x="176.28572"
         y="38.424706"
         style="font-size:3.75px">On</tspan></text>
    <rect
       style="fill:none;fill-opacity:1;stroke:#000000;stroke-width:1;stroke-miterlimit:4;stroke-dasharray:none;stroke-dashoffset:0;stroke-opacity:1"
       id="rect4288-0"
       width="8"
       height="6"
       x="272.25"
       y="34.281849" />
    <text
       xml:space="preserve"
       style="font-style:normal;font-weight:normal;font-size:13.75px;line-height:125%;font-family:sans-serif;letter-spacing:0px;word-spacing:0px;fill:#000000;fill-opacity:1;stroke:none;stroke-width:1px;stroke-linecap:butt;stroke-linejoin:miter;stroke-opacity:1"
       x="273.53571"
       y="38.344349"
       id="text4290-9"
       sodipodi:linespacing="125%"><tspan
         sodipodi:role="line"
         id="tspan4292-3"
         x="273.53571"
         y="38.344349"
         style="font-size:3.75px">On</tspan></text>
    <rect
       style="fill:none;fill-opacity:1;stroke:#000000;stroke-width:1;stroke-miterlimit:4;stroke-dasharray:none;stroke-dashoffset:0;stroke-opacity:1"
       id="rect4288-6"
       width="8"
       height="6"
       x="369.25"
       y="34.505062" />
    <text
       xml:space="preserve"
       style="font-style:normal;font-weight:normal;font-size:13.75px;line-height:125%;font-family:sans-serif;letter-spacing:0px;word-spacing:0px;fill:#000000;fill-opacity:1;stroke:none;stroke-width:1px;stroke-linecap:butt;stroke-linejoin:miter;stroke-opacity:1"
       x="370.53571"
       y="38.567562"
       id="text4290-8"
       sodipodi:linespacing="125%"><tspan
         sodipodi:role="line"
         id="tspan4292-1"
         x="370.53571"
         y="38.567562"
         style="font-size:3.75px">On</tspan></text>
    <rect
       style="fill:none;fill-opacity:1;stroke:#000000;stroke-width:1;stroke-miterlimit:4;stroke-dasharray:none;stroke-dashoffset:0;stroke-opacity:1"
       id="rect4288-6-0"
       width="8"
       height="6"
       x="465.73477"
       y="34.053009" />
    <text
       xml:space="preserve"
       style="font-style:normal;font-weight:normal;font-size:13.75px;line-height:125%;font-family:sans-serif;letter-spacing:0px;word-spacing:0px;fill:#000000;fill-opacity:1;stroke:none;stroke-width:1px;stroke-linecap:butt;stroke-linejoin:miter;stroke-opacity:1"
       x="467.02048"
       y="38.115509"
       id="text4290-8-0"
       sodipodi:linespacing="125%"><tspan
         sodipodi:role="line"
         id="tspan4292-1-8"
         x="467.02048"
         y="38.115509"
         style="font-size:3.75px">On</tspan></text>
    <text
       xml:space="preserve"
       style="font-style:normal;font-weight:normal;font-size:13.75px;line-height:125%;font-family:sans-serif;letter-spacing:0px;word-spacing:0px;fill:#000000;fill-opacity:1;stroke:none;stroke-width:1px;stroke-linecap:butt;stroke-linejoin:miter;stroke-opacity:1"
       x="93.890541"
       y="62.91011"
       id="text4346"
       sodipodi:linespacing="125%"><tspan
         sodipodi:role="line"
         id="tspan4348"
         x="93.890541"
         y="62.91011"
         style="font-size:3.75px">Threshold</tspan></text>
    <text
       xml:space="preserve"
       style="font-style:normal;font-weight:normal;font-size:13.75px;line-height:125%;font-family:sans-serif;letter-spacing:0px;word-spacing:0px;fill:#000000;fill-opacity:1;stroke:none;stroke-width:1px;stroke-linecap:butt;stroke-linejoin:miter;stroke-opacity:1"
       x="117.32394"
       y="62.949966"
       id="text4346-9"
       sodipodi:linespacing="125%"><tspan
         sodipodi:role="line"
         id="tspan4348-9"
         x="117.32394"
         y="62.949966"
         style="font-size:3.75px">Attack</tspan></text>
    <text
       xml:space="preserve"
       style="font-style:normal;font-weight:normal;font-size:13.75px;line-height:125%;font-family:sans-serif;letter-spacing:0px;word-spacing:0px;fill:#000000;fill-opacity:1;stroke:none;stroke-width:1px;stroke-linecap:butt;stroke-linejoin:miter;stroke-opacity:1"
       x="135.5605"
       y="62.532902"
       id="text4346-6"
       sodipodi:linespacing="125%"><tspan
         sodipodi:role="line"
         id="tspan4348-4"
         x="135.5605"
         y="62.532902"
         style="font-size:3.75px">Release</tspan></text>
    <ellipse
       style="fill:none;fill-opacity:1;stroke:#000000;stroke-width:1;stroke-miterlimit:4;stroke-dasharray:none;stroke-dashoffset:0;stroke-opacity:1"
       id="path4211-3"
       cx="199.56418"
       cy="51.36591"
       rx="7"
       ry="6.5" />
    <ellipse
       style="fill:none;fill-opacity:1;stroke:#000000;stroke-width:1;stroke-miterlimit:4;stroke-dasharray:none;stroke-dashoffset:0;stroke-opacity:1"
       id="path4211-2-0"
       cx="219.52142"
       cy="51.350525"
       rx="7"
       ry="6.5" />
    <ellipse
       style="fill:none;fill-opacity:1;stroke:#000000;stroke-width:1;stroke-miterlimit:4;stroke-dasharray:none;stroke-dashoffset:0;stroke-opacity:1"
       id="path4211-4-6"
       cx="239.63113"
       cy="51.446297"
       rx="7"
       ry="6.5" />
    <text
       xml:space="preserve"
       style="font-style:normal;font-weight:normal;font-size:13.75px;line-height:125%;font-family:sans-serif;letter-spacing:0px;word-spacing:0px;fill:#000000;fill-opacity:1;stroke:none;stroke-width:1px;stroke-linecap:butt;stroke-linejoin:miter;stroke-opacity:1"
       x="190.19897"
       y="62.928341"
       id="text4346-0"
       sodipodi:linespacing="125%"><tspan
         sodipodi:role="line"
         id="tspan4348-7"
         x="190.19897"
         y="62.928341"
         style="font-size:3.75px">Threshold</tspan></text>
    <text
       xml:space="preserve"
       style="font-style:normal;font-weight:normal;font-size:13.75px;line-height:125%;font-family:sans-serif;letter-spacing:0px;word-spacing:0px;fill:#000000;fill-opacity:1;stroke:none;stroke-width:1px;stroke-linecap:butt;stroke-linejoin:miter;stroke-opacity:1"
       x="212.84665"
       y="62.839684"
       id="text4346-9-8"
       sodipodi:linespacing="125%"><tspan
         sodipodi:role="line"
         id="tspan4348-9-3"
         x="212.84665"
         y="62.839684"
         style="font-size:3.75px">Amount</tspan></text>
    <text
       xml:space="preserve"
       style="font-style:normal;font-weight:normal;font-size:13.75px;line-height:125%;font-family:sans-serif;letter-spacing:0px;word-spacing:0px;fill:#000000;fill-opacity:1;stroke:none;stroke-width:1px;stroke-linecap:butt;stroke-linejoin:miter;stroke-opacity:1"
       x="235.40907"
       y="62.729706"
       id="text4346-6-0"
       sodipodi:linespacing="125%"><tspan
         sodipodi:role="line"
         id="tspan4348-4-9"
         x="235.40907"
         y="62.729706"
         style="font-size:3.75px"> Mix</tspan></text>
    <ellipse
       style="fill:none;fill-opacity:1;stroke:#000000;stroke-width:1;stroke-miterlimit:4;stroke-dasharray:none;stroke-dashoffset:0;stroke-opacity:1"
       id="path4211-30"
       cx="295.76083"
       cy="51.495037"
       rx="7"
       ry="6.5" />
    <ellipse
       style="fill:none;fill-opacity:1;stroke:#000000;stroke-width:1;stroke-miterlimit:4;stroke-dasharray:none;stroke-dashoffset:0;stroke-opacity:1"
       id="path4211-2-5"
       cx="315.71808"
       cy="51.479652"
       rx="7"
       ry="6.5" />
    <ellipse
       style="fill:none;fill-opacity:1;stroke:#000000;stroke-width:1;stroke-miterlimit:4;stroke-dasharray:none;stroke-dashoffset:0;stroke-opacity:1"
       id="path4211-4-2"
       cx="335.82779"
       cy="51.575424"
       rx="7"
       ry="6.5" />
    <text
       xml:space="preserve"
       style="font-style:normal;font-weight:normal;font-size:13.75px;line-height:125%;font-family:sans-serif;letter-spacing:0px;word-spacing:0px;fill:#000000;fill-opacity:1;stroke:none;stroke-width:1px;stroke-linecap:butt;stroke-linejoin:miter;stroke-opacity:1"
       x="286.26172"
       y="63.012825"
       id="text4346-04"
       sodipodi:linespacing="125%"><tspan
         sodipodi:role="line"
         id="tspan4348-6"
         x="286.26172"
         y="63.012825"
         style="font-size:3.75px">Threshold</tspan></text>
    <text
       xml:space="preserve"
       style="font-style:normal;font-weight:normal;font-size:13.75px;line-height:125%;font-family:sans-serif;letter-spacing:0px;word-spacing:0px;fill:#000000;fill-opacity:1;stroke:none;stroke-width:1px;stroke-linecap:butt;stroke-linejoin:miter;stroke-opacity:1"
       x="306.6377"
       y="62.968807"
       id="text4346-9-9"
       sodipodi:linespacing="125%"><tspan
         sodipodi:role="line"
         id="tspan4348-9-0"
         x="306.6377"
         y="62.968807"
         style="font-size:3.75px">Aggression</tspan></text>
    <text
       xml:space="preserve"
       style="font-style:normal;font-weight:normal;font-size:13.75px;line-height:125%;font-family:sans-serif;letter-spacing:0px;word-spacing:0px;fill:#000000;fill-opacity:1;stroke:none;stroke-width:1px;stroke-linecap:butt;stroke-linejoin:miter;stroke-opacity:1"
       x="332.95334"
       y="62.997246"
       id="text4346-6-8"
       sodipodi:linespacing="125%"><tspan
         sodipodi:role="line"
         id="tspan4348-4-8"
         x="332.95334"
         y="62.997246"
         style="font-size:3.75px">Mix</tspan></text>
    <ellipse
       style="fill:none;fill-opacity:1;stroke:#000000;stroke-width:1;stroke-miterlimit:4;stroke-dasharray:none;stroke-dashoffset:0;stroke-opacity:1"
       id="path4211-6"
       cx="391.57669"
       cy="51.486992"
       rx="7"
       ry="6.5" />
    <ellipse
       style="fill:none;fill-opacity:1;stroke:#000000;stroke-width:1;stroke-miterlimit:4;stroke-dasharray:none;stroke-dashoffset:0;stroke-opacity:1"
       id="path4211-2-6"
       cx="411.53394"
       cy="51.471607"
       rx="7"
       ry="6.5" />
    <ellipse
       style="fill:none;fill-opacity:1;stroke:#000000;stroke-width:1;stroke-miterlimit:4;stroke-dasharray:none;stroke-dashoffset:0;stroke-opacity:1"
       id="path4211-4-9"
       cx="431.64365"
       cy="51.567379"
       rx="7"
       ry="6.5" />
    <text
       xml:space="preserve"
       style="font-style:normal;font-weight:normal;font-size:13.75px;line-height:125%;font-family:sans-serif;letter-spacing:0px;word-spacing:0px;fill:#000000;fill-opacity:1;stroke:none;stroke-width:1px;stroke-linecap:butt;stroke-linejoin:miter;stroke-opacity:1"
       x="382.97043"
       y="63.00478"
       id="text4346-7"
       sodipodi:linespacing="125%"><tspan
         sodipodi:role="line"
         id="tspan4348-79"
         x="382.97043"
         y="63.00478"
         style="font-size:3.75px">Threshold</tspan></text>
    <text
       xml:space="preserve"
       style="font-style:normal;font-weight:normal;font-size:13.75px;line-height:125%;font-family:sans-serif;letter-spacing:0px;word-spacing:0px;fill:#000000;fill-opacity:1;stroke:none;stroke-width:1px;stroke-linecap:butt;stroke-linejoin:miter;stroke-opacity:1"
       x="405.98447"
       y="63.013069"
       id="text4346-9-7"
       sodipodi:linespacing="125%"><tspan
         sodipodi:role="line"
         id="tspan4348-9-8"
         x="405.98447"
         y="63.013069"
         style="font-size:3.75px">Attack</tspan></text>
    <text
       xml:space="preserve"
       style="font-style:normal;font-weight:normal;font-size:13.75px;line-height:125%;font-family:sans-serif;letter-spacing:0px;word-spacing:0px;fill:#000000;fill-opacity:1;stroke:none;stroke-width:1px;stroke-linecap:butt;stroke-linejoin:miter;stroke-opacity:1"
       x="424.58676"
       y="62.716858"
       id="text4346-6-03"
       sodipodi:linespacing="125%"><tspan
         sodipodi:role="line"
         id="tspan4348-4-2"
         x="424.58676"
         y="62.716858"
         style="font-size:3.75px">Release</tspan></text>
    <rect
       style="fill:none;fill-opacity:1;stroke:#000000;stroke-width:1;stroke-miterlimit:4;stroke-dasharray:none;stroke-dashoffset:0;stroke-opacity:1"
       id="rect4469"
       width="15"
       height="5"
       x="45"
       y="47.362206" />
    <rect
       style="fill:none;fill-opacity:1;stroke:#000000;stroke-width:1;stroke-miterlimit:4;stroke-dasharray:none;stroke-dashoffset:0;stroke-opacity:1"
       id="rect4469-3"
       width="15"
       height="5"
       x="45"
       y="57.362206" />
    <ellipse
       style="fill:none;fill-opacity:1;stroke:#000000;stroke-width:1;stroke-miterlimit:4;stroke-dasharray:none;stroke-dashoffset:0;stroke-opacity:1"
       id="path4211-304"
       cx="75.362373"
       cy="51.911972"
       rx="7"
       ry="6.5" />
    <text
       xml:space="preserve"
       style="font-style:normal;font-weight:normal;font-size:13.75px;line-height:125%;font-family:sans-serif;letter-spacing:0px;word-spacing:0px;fill:#000000;fill-opacity:1;stroke:none;stroke-width:1px;stroke-linecap:butt;stroke-linejoin:miter;stroke-opacity:1"
       x="70.724609"
       y="62.79842"
       id="text4346-1"
       sodipodi:linespacing="125%"><tspan
         sodipodi:role="line"
         id="tspan4348-0"
         x="70.724609"
         y="62.79842"
         style="font-size:3.75px">Gain</tspan></text>
    <text
       xml:space="preserve"
       style="font-style:normal;font-weight:normal;font-size:13.75px;line-height:125%;font-family:sans-serif;letter-spacing:0px;word-spacing:0px;fill:#000000;fill-opacity:1;stroke:none;stroke-width:1px;stroke-linecap:butt;stroke-linejoin:miter;stroke-opacity:1"
       x="47.09827"
       y="51.154907"
       id="text4346-1-6"
       sodipodi:linespacing="125%"><tspan
         sodipodi:role="line"
         id="tspan4348-0-7"
         x="47.09827"
         y="51.154907"
         style="font-size:3.75px">Mic1</tspan></text>
    <text
       xml:space="preserve"
       style="font-style:normal;font-weight:normal;font-size:13.75px;line-height:125%;font-family:sans-serif;letter-spacing:0px;word-spacing:0px;fill:#000000;fill-opacity:1;stroke:none;stroke-width:1px;stroke-linecap:butt;stroke-linejoin:miter;stroke-opacity:1"
       x="46.302971"
       y="61.230209"
       id="text4346-1-66"
       sodipodi:linespacing="125%"><tspan
         sodipodi:role="line"
         id="tspan4348-0-1"
         x="46.302971"
         y="61.230209"
         style="font-size:3.75px">&quot; Talk &quot;</tspan></text>
    <rect
       style="fill:none;fill-opacity:1;stroke:#000000;stroke-width:1;stroke-miterlimit:4;stroke-dasharray:none;stroke-dashoffset:0;stroke-opacity:1"
       id="rect4469-8"
       width="15"
       height="5"
       x="259.07227"
       y="45.444286" />
    <rect
       style="fill:none;fill-opacity:1;stroke:#000000;stroke-width:1;stroke-miterlimit:4;stroke-dasharray:none;stroke-dashoffset:0;stroke-opacity:1"
       id="rect4469-3-6"
       width="15"
       height="5"
       x="259.07227"
       y="55.444286" />
    <text
       xml:space="preserve"
       style="font-style:normal;font-weight:normal;font-size:13.75px;line-height:125%;font-family:sans-serif;letter-spacing:0px;word-spacing:0px;fill:#000000;fill-opacity:1;stroke:none;stroke-width:1px;stroke-linecap:butt;stroke-linejoin:miter;stroke-opacity:1"
       x="261.92816"
       y="48.984451"
       id="text4346-1-6-9"
       sodipodi:linespacing="125%"><tspan
         sodipodi:role="line"
         id="tspan4348-0-7-5"
         x="261.92816"
         y="48.984451"
         style="font-size:3.75px">Type</tspan></text>
    <text
       xml:space="preserve"
       style="font-style:normal;font-weight:normal;font-size:13.75px;line-height:125%;font-family:sans-serif;letter-spacing:0px;word-spacing:0px;fill:#000000;fill-opacity:1;stroke:none;stroke-width:1px;stroke-linecap:butt;stroke-linejoin:miter;stroke-opacity:1"
       x="259.80704"
       y="59.249157"
       id="text4346-1-66-7"
       sodipodi:linespacing="125%"><tspan
         sodipodi:role="line"
         id="tspan4348-0-1-8"
         x="259.80704"
         y="59.249157"
         style="font-size:3.75px">&quot;Amnt&quot;</tspan></text>
    <rect
       style="fill:none;fill-opacity:1;stroke:#000000;stroke-width:1;stroke-miterlimit:4;stroke-dasharray:none;stroke-dashoffset:0;stroke-opacity:1"
       id="rect4469-8-3"
       width="15"
       height="5"
       x="356.82544"
       y="45.368797" />
    <rect
       style="fill:none;fill-opacity:1;stroke:#000000;stroke-width:1;stroke-miterlimit:4;stroke-dasharray:none;stroke-dashoffset:0;stroke-opacity:1"
       id="rect4469-3-6-7"
       width="15"
       height="5"
       x="356.82544"
       y="55.368797" />
    <text
       xml:space="preserve"
       style="font-style:normal;font-weight:normal;font-size:13.75px;line-height:125%;font-family:sans-serif;letter-spacing:0px;word-spacing:0px;fill:#000000;fill-opacity:1;stroke:none;stroke-width:1px;stroke-linecap:butt;stroke-linejoin:miter;stroke-opacity:1"
       x="359.68134"
       y="48.908962"
       id="text4346-1-6-9-2"
       sodipodi:linespacing="125%"><tspan
         sodipodi:role="line"
         id="tspan4348-0-7-5-7"
         x="359.68134"
         y="48.908962"
         style="font-size:3.75px">Type</tspan></text>
    <text
       xml:space="preserve"
       style="font-style:normal;font-weight:normal;font-size:13.75px;line-height:125%;font-family:sans-serif;letter-spacing:0px;word-spacing:0px;fill:#000000;fill-opacity:1;stroke:none;stroke-width:1px;stroke-linecap:butt;stroke-linejoin:miter;stroke-opacity:1"
       x="357.56021"
       y="59.173668"
       id="text4346-1-66-7-3"
       sodipodi:linespacing="125%"><tspan
         sodipodi:role="line"
         id="tspan4348-0-1-8-7"
         x="357.56021"
         y="59.173668"
         style="font-size:3.75px">&quot;Amnt&quot;</tspan></text>
    <path
       style="fill:none;fill-opacity:1;stroke:#000000;stroke-width:0.5;stroke-miterlimit:4;stroke-dasharray:none;stroke-dashoffset:0;stroke-opacity:1"
       id="path4677"
       d="m 75.032783,46.547888 c 0.225138,0.118737 0.445695,0.246332 0.66944,0.368141 0.166379,0.102264 0.33879,0.195866 0.515478,0.279171 0.09207,0.04856 0.04634,0.02604 0.137049,0.06789 0,0 -0.779727,0.514854 -0.779727,0.514854 l 0,0 c -0.09087,-0.04524 -0.04534,-0.02216 -0.136573,-0.06926 -0.174012,-0.08896 -0.345738,-0.182815 -0.511089,-0.287124 -0.222138,-0.123206 -0.439836,-0.254992 -0.674513,-0.353911 0,0 0.779935,-0.519761 0.779935,-0.519761 z"
       inkscape:connector-curvature="0" />
    <path
       style="fill:none;fill-opacity:1;stroke:#000000;stroke-width:0.5;stroke-miterlimit:4;stroke-dasharray:none;stroke-dashoffset:0;stroke-opacity:1"
       id="path4677-9"
       d="m 98.095918,49.464448 c 0.225138,0.118737 0.445695,0.246332 0.66944,0.368141 0.166379,0.102264 0.33879,0.195866 0.515478,0.279171 0.09207,0.04856 0.04634,0.02604 0.137049,0.06789 0,0 -0.779727,0.514854 -0.779727,0.514854 l 0,0 c -0.09087,-0.04524 -0.04534,-0.02216 -0.136573,-0.06926 -0.174012,-0.08896 -0.345738,-0.182815 -0.511089,-0.287124 -0.222138,-0.123206 -0.439836,-0.254992 -0.674513,-0.353911 0,0 0.779935,-0.519761 0.779935,-0.519761 z"
       inkscape:connector-curvature="0" />
    <path
       style="fill:none;fill-opacity:1;stroke:#000000;stroke-width:0.5;stroke-miterlimit:4;stroke-dasharray:none;stroke-dashoffset:0;stroke-opacity:1"
       id="path4677-90"
       d="m 118.72726,53.936848 c 0.22514,0.118737 0.4457,0.246332 0.66944,0.368141 0.16638,0.102264 0.33879,0.195866 0.51548,0.279171 0.0921,0.04856 0.0463,0.02604 0.13705,0.06789 0,0 -0.77973,0.514854 -0.77973,0.514854 l 0,0 c -0.0909,-0.04524 -0.0453,-0.02216 -0.13657,-0.06926 -0.17401,-0.08896 -0.34574,-0.182815 -0.51109,-0.287124 -0.22214,-0.123206 -0.43984,-0.254992 -0.67451,-0.353911 0,0 0.77993,-0.519761 0.77993,-0.519761 z"
       inkscape:connector-curvature="0" />
    <path
       style="fill:none;fill-opacity:1;stroke:#000000;stroke-width:0.5;stroke-miterlimit:4;stroke-dasharray:none;stroke-dashoffset:0;stroke-opacity:1"
       id="path4677-0"
       d="m 139.55957,47.128245 c 0.22514,0.118737 0.4457,0.246332 0.66944,0.368141 0.16638,0.102264 0.33879,0.195866 0.51548,0.279171 0.0921,0.04856 0.0463,0.02604 0.13705,0.06789 0,0 -0.77973,0.514854 -0.77973,0.514854 l 0,0 c -0.0909,-0.04524 -0.0453,-0.02216 -0.13657,-0.06926 -0.17401,-0.08896 -0.34574,-0.182815 -0.51109,-0.287124 -0.22214,-0.123206 -0.43984,-0.254992 -0.67451,-0.353911 0,0 0.77993,-0.519761 0.77993,-0.519761 z"
       inkscape:connector-curvature="0" />
    <path
       style="fill:none;fill-opacity:1;stroke:#000000;stroke-width:0.5;stroke-miterlimit:4;stroke-dasharray:none;stroke-dashoffset:0;stroke-opacity:1"
       id="path4677-8"
       d="m 194.88992,48.905031 c 0.22514,0.118737 0.4457,0.246332 0.66944,0.368141 0.16638,0.102264 0.33879,0.195866 0.51548,0.279171 0.0921,0.04856 0.0463,0.02604 0.13705,0.06789 0,0 -0.77973,0.514854 -0.77973,0.514854 l 0,0 c -0.0909,-0.04524 -0.0453,-0.02216 -0.13657,-0.06926 -0.17401,-0.08896 -0.34574,-0.182815 -0.51109,-0.287124 -0.22214,-0.123206 -0.43984,-0.254992 -0.67451,-0.353911 0,0 0.77993,-0.519761 0.77993,-0.519761 z"
       inkscape:connector-curvature="0" />
    <path
       style="fill:none;fill-opacity:1;stroke:#000000;stroke-width:0.5;stroke-miterlimit:4;stroke-dasharray:none;stroke-dashoffset:0;stroke-opacity:1"
       id="path4677-6"
       d="m 223.53278,49.333602 c 0.22514,0.118737 0.4457,0.246332 0.66944,0.368141 0.16638,0.102264 0.33879,0.195866 0.51548,0.279171 0.0921,0.04856 0.0463,0.02604 0.13705,0.06789 0,0 -0.77973,0.514854 -0.77973,0.514854 l 0,0 c -0.0909,-0.04524 -0.0453,-0.02216 -0.13657,-0.06926 -0.17401,-0.08896 -0.34574,-0.182815 -0.51109,-0.287124 -0.22214,-0.123206 -0.43984,-0.254992 -0.67451,-0.353911 0,0 0.77993,-0.519761 0.77993,-0.519761 z"
       inkscape:connector-curvature="0" />
    <path
       style="fill:none;fill-opacity:1;stroke:#000000;stroke-width:0.5;stroke-miterlimit:4;stroke-dasharray:none;stroke-dashoffset:0;stroke-opacity:1"
       id="path4677-02"
       d="m 243.47028,52.396102 c 0.22514,0.118737 0.4457,0.246332 0.66944,0.368141 0.16638,0.102264 0.33879,0.195866 0.51548,0.279171 0.0921,0.04856 0.0463,0.02604 0.13705,0.06789 0,0 -0.77973,0.514854 -0.77973,0.514854 l 0,0 c -0.0909,-0.04524 -0.0453,-0.02216 -0.13657,-0.06926 -0.17401,-0.08896 -0.34574,-0.182815 -0.51109,-0.287124 -0.22214,-0.123206 -0.43984,-0.254992 -0.67451,-0.353911 0,0 0.77993,-0.519761 0.77993,-0.519761 z"
       inkscape:connector-curvature="0" />
    <path
       style="fill:none;fill-opacity:1;stroke:#000000;stroke-width:0.5;stroke-miterlimit:4;stroke-dasharray:none;stroke-dashoffset:0;stroke-opacity:1"
       id="path4677-2"
       d="m 295.56849,46.137174 c 0.22514,0.118737 0.4457,0.246332 0.66944,0.368141 0.16638,0.102264 0.33879,0.195866 0.51548,0.279171 0.0921,0.04856 0.0463,0.02604 0.13705,0.06789 0,0 -0.77973,0.514854 -0.77973,0.514854 l 0,0 c -0.0909,-0.04524 -0.0453,-0.02216 -0.13657,-0.06926 -0.17401,-0.08896 -0.34574,-0.182815 -0.51109,-0.287124 -0.22214,-0.123206 -0.43984,-0.254992 -0.67451,-0.353911 0,0 0.77993,-0.519761 0.77993,-0.519761 z"
       inkscape:connector-curvature="0" />
    <path
       style="fill:none;fill-opacity:1;stroke:#000000;stroke-width:0.5;stroke-miterlimit:4;stroke-dasharray:none;stroke-dashoffset:0;stroke-opacity:1"
       id="path4677-98"
       d="m 311.62207,48.315745 c 0.22514,0.118737 0.4457,0.246332 0.66944,0.368141 0.16638,0.102264 0.33879,0.195866 0.51548,0.279171 0.0921,0.04856 0.0463,0.02604 0.13705,0.06789 0,0 -0.77973,0.514854 -0.77973,0.514854 l 0,0 c -0.0909,-0.04524 -0.0453,-0.02216 -0.13657,-0.06926 -0.17401,-0.08896 -0.34574,-0.182815 -0.51109,-0.287124 -0.22214,-0.123206 -0.43984,-0.254992 -0.67451,-0.353911 0,0 0.77993,-0.519761 0.77993,-0.519761 z"
       inkscape:connector-curvature="0" />
    <path
       style="fill:none;fill-opacity:1;stroke:#000000;stroke-width:0.5;stroke-miterlimit:4;stroke-dasharray:none;stroke-dashoffset:0;stroke-opacity:1"
       id="path4677-020"
       d="m 340.13992,50.440745 c 0.22514,0.118737 0.4457,0.246332 0.66944,0.368141 0.16638,0.102264 0.33879,0.195866 0.51548,0.279171 0.0921,0.04856 0.0463,0.02604 0.13705,0.06789 0,0 -0.77973,0.514854 -0.77973,0.514854 l 0,0 c -0.0909,-0.04524 -0.0453,-0.02216 -0.13657,-0.06926 -0.17401,-0.08896 -0.34574,-0.182815 -0.51109,-0.287124 -0.22214,-0.123206 -0.43984,-0.254992 -0.67451,-0.353911 0,0 0.77993,-0.519761 0.77993,-0.519761 z"
       inkscape:connector-curvature="0" />
    <path
       style="fill:none;fill-opacity:1;stroke:#000000;stroke-width:0.5;stroke-miterlimit:4;stroke-dasharray:none;stroke-dashoffset:0;stroke-opacity:1"
       id="path4677-7"
       d="m 387.72726,53.558041 c 0.22514,0.118737 0.4457,0.246332 0.66944,0.368141 0.16638,0.102264 0.33879,0.195866 0.51548,0.279171 0.0921,0.04856 0.0463,0.02604 0.13705,0.06789 0,0 -0.77973,0.514854 -0.77973,0.514854 l 0,0 c -0.0909,-0.04524 -0.0453,-0.02216 -0.13657,-0.06926 -0.17401,-0.08896 -0.34574,-0.182815 -0.51109,-0.287124 -0.22214,-0.123206 -0.43984,-0.254992 -0.67451,-0.353911 0,0 0.77993,-0.519761 0.77993,-0.519761 z"
       inkscape:connector-curvature="0" />
    <path
       style="fill:none;fill-opacity:1;stroke:#000000;stroke-width:0.5;stroke-miterlimit:4;stroke-dasharray:none;stroke-dashoffset:0;stroke-opacity:1"
       id="path4677-5"
       d="m 408.53786,54.830884 c 0.22514,0.118737 0.4457,0.246332 0.66944,0.368141 0.16638,0.102264 0.33879,0.195866 0.51548,0.279171 0.0921,0.04856 0.0463,0.02604 0.13705,0.06789 0,0 -0.77973,0.514854 -0.77973,0.514854 l 0,0 c -0.0909,-0.04524 -0.0453,-0.02216 -0.13657,-0.06926 -0.17401,-0.08896 -0.34574,-0.182815 -0.51109,-0.287124 -0.22214,-0.123206 -0.43984,-0.254992 -0.67451,-0.353911 0,0 0.77993,-0.519761 0.77993,-0.519761 z"
       inkscape:connector-curvature="0" />
    <path
       style="fill:none;fill-opacity:1;stroke:#000000;stroke-width:0.5;stroke-miterlimit:4;stroke-dasharray:none;stroke-dashoffset:0;stroke-opacity:1"
       id="path4677-26"
       d="m 427.62573,48.275045 c 0.22514,0.118737 0.4457,0.246332 0.66944,0.368141 0.16638,0.102264 0.33879,0.195866 0.51548,0.279171 0.0921,0.04856 0.0463,0.02604 0.13705,0.06789 0,0 -0.77973,0.514854 -0.77973,0.514854 l 0,0 c -0.0909,-0.04524 -0.0453,-0.02216 -0.13657,-0.06926 -0.17401,-0.08896 -0.34574,-0.182815 -0.51109,-0.287124 -0.22214,-0.123206 -0.43984,-0.254992 -0.67451,-0.353911 0,0 0.77993,-0.519761 0.77993,-0.519761 z"
       inkscape:connector-curvature="0" />
    <rect
       style="fill:none;fill-opacity:1;stroke:#000000;stroke-width:1;stroke-miterlimit:4;stroke-dasharray:none;stroke-dashoffset:0;stroke-opacity:1"
       id="rect4145-8"
       width="47.52195"
       height="35.289806"
       x="574.96942"
       y="32.241657" />
    <path
       style="fill:none;fill-rule:evenodd;stroke:#000000;stroke-width:1px;stroke-linecap:butt;stroke-linejoin:miter;stroke-opacity:1"
       d="m 574.99968,42.213717 47,0"
       id="path4207"
       inkscape:connector-curvature="0" />
    <text
       xml:space="preserve"
       style="font-style:normal;font-weight:normal;font-size:5px;line-height:125%;font-family:sans-serif;letter-spacing:0px;word-spacing:0px;fill:#000000;fill-opacity:1;stroke:none;stroke-width:1px;stroke-linecap:butt;stroke-linejoin:miter;stroke-opacity:1"
       x="576.94733"
       y="38.771133"
       id="text4234-4"
       sodipodi:linespacing="125%"><tspan
         sodipodi:role="line"
         id="tspan4236-96"
         x="576.94733"
         y="38.771133"
         style="font-style:normal;font-variant:normal;font-weight:normal;font-stretch:normal;font-size:7.5px;font-family:Cabin;-inkscape-font-specification:Cabin">Mic Output</tspan></text>
    <ellipse
       style="fill:none;fill-opacity:1;stroke:#000000;stroke-width:1;stroke-miterlimit:4;stroke-dasharray:none;stroke-dashoffset:0;stroke-opacity:1"
       id="path4211-2-6-2"
       cx="588.81433"
       cy="50.818043"
       rx="7"
       ry="6.5" />
    <ellipse
       style="fill:none;fill-opacity:1;stroke:#000000;stroke-width:1;stroke-miterlimit:4;stroke-dasharray:none;stroke-dashoffset:0;stroke-opacity:1"
       id="path4211-4-9-7"
       cx="608.92407"
       cy="50.913815"
       rx="7"
       ry="6.5" />
    <text
       xml:space="preserve"
       style="font-style:normal;font-weight:normal;font-size:13.75px;line-height:125%;font-family:sans-serif;letter-spacing:0px;word-spacing:0px;fill:#000000;fill-opacity:1;stroke:none;stroke-width:1px;stroke-linecap:butt;stroke-linejoin:miter;stroke-opacity:1"
       x="583.64368"
       y="62.422642"
       id="text4346-9-7-3"
       sodipodi:linespacing="125%"><tspan
         sodipodi:role="line"
         id="tspan4348-9-8-2"
         x="583.64368"
         y="62.422642"
         style="font-size:3.75px">Comp</tspan></text>
    <text
       xml:space="preserve"
       style="font-style:normal;font-weight:normal;font-size:13.75px;line-height:125%;font-family:sans-serif;letter-spacing:0px;word-spacing:0px;fill:#000000;fill-opacity:1;stroke:none;stroke-width:1px;stroke-linecap:butt;stroke-linejoin:miter;stroke-opacity:1"
       x="602.2243"
       y="62.063297"
       id="text4346-6-03-7"
       sodipodi:linespacing="125%"><tspan
         sodipodi:role="line"
         id="tspan4348-4-2-1"
         x="602.2243"
         y="62.063297"
         style="font-size:3.75px">Level</tspan></text>
    <path
       style="fill:none;fill-opacity:1;stroke:#000000;stroke-width:0.5;stroke-miterlimit:4;stroke-dasharray:none;stroke-dashoffset:0;stroke-opacity:1"
       id="path4677-92"
       d="m 586.87351,46.01044 c 0.22514,0.118737 0.4457,0.246332 0.66944,0.368141 0.16638,0.102264 0.33879,0.195866 0.51548,0.279171 0.0921,0.04856 0.0463,0.02604 0.13705,0.06789 0,0 -0.77973,0.514854 -0.77973,0.514854 l 0,0 c -0.0909,-0.04524 -0.0453,-0.02216 -0.13657,-0.06926 -0.17401,-0.08896 -0.34574,-0.182815 -0.51109,-0.287124 -0.22214,-0.123206 -0.43984,-0.254992 -0.67451,-0.353911 0,0 0.77993,-0.519761 0.77993,-0.519761 z"
       inkscape:connector-curvature="0" />
    <path
       style="fill:none;fill-opacity:1;stroke:#000000;stroke-width:0.5;stroke-miterlimit:4;stroke-dasharray:none;stroke-dashoffset:0;stroke-opacity:1"
       id="path4677-50"
       d="m 612.82053,51.409553 c 0.22514,0.118737 0.4457,0.246332 0.66944,0.368141 0.16638,0.102264 0.33879,0.195866 0.51548,0.279171 0.0921,0.04856 0.0463,0.02604 0.13705,0.06789 0,0 -0.77973,0.514854 -0.77973,0.514854 l 0,0 c -0.0909,-0.04524 -0.0453,-0.02216 -0.13657,-0.06926 -0.17401,-0.08896 -0.34574,-0.182815 -0.51109,-0.287124 -0.22214,-0.123206 -0.43984,-0.254992 -0.67451,-0.353911 0,0 0.77993,-0.519761 0.77993,-0.519761 z"
       inkscape:connector-curvature="0" />
    <rect
       style="fill:none;fill-opacity:1;stroke:#000000;stroke-width:1;stroke-miterlimit:4;stroke-dasharray:none;stroke-dashoffset:0;stroke-opacity:1"
       id="rect4145-19-8"
       width="95"
       height="35"
       x="477.88641"
       y="32.35191" />
    <path
       style="fill:none;fill-rule:evenodd;stroke:#000000;stroke-width:1px;stroke-linecap:butt;stroke-linejoin:miter;stroke-opacity:1"
       d="m 477.8795,42.353177 94.99999,0"
       id="path4205-2"
       inkscape:connector-curvature="0" />
    <text
       xml:space="preserve"
       style="font-style:normal;font-weight:normal;font-size:5px;line-height:125%;font-family:sans-serif;letter-spacing:0px;word-spacing:0px;fill:#000000;fill-opacity:1;stroke:none;stroke-width:1px;stroke-linecap:butt;stroke-linejoin:miter;stroke-opacity:1"
       x="479.5593"
       y="39.553448"
       id="text4234-7-8"
       sodipodi:linespacing="125%"><tspan
         sodipodi:role="line"
         id="tspan4236-7-3"
         x="479.5593"
         y="39.553448"
         style="font-style:normal;font-variant:normal;font-weight:normal;font-stretch:normal;font-size:7.5px;font-family:Cabin;-inkscape-font-specification:Cabin">User defined effect</tspan></text>
    <rect
       style="fill:none;fill-opacity:1;stroke:#000000;stroke-width:1;stroke-miterlimit:4;stroke-dasharray:none;stroke-dashoffset:0;stroke-opacity:1"
       id="rect4288-6-0-2"
       width="8"
       height="6"
       x="562.61432"
       y="34.04398" />
    <text
       xml:space="preserve"
       style="font-style:normal;font-weight:normal;font-size:13.75px;line-height:125%;font-family:sans-serif;letter-spacing:0px;word-spacing:0px;fill:#000000;fill-opacity:1;stroke:none;stroke-width:1px;stroke-linecap:butt;stroke-linejoin:miter;stroke-opacity:1"
       x="563.90002"
       y="38.10648"
       id="text4290-8-0-0"
       sodipodi:linespacing="125%"><tspan
         sodipodi:role="line"
         id="tspan4292-1-8-3"
         x="563.90002"
         y="38.10648"
         style="font-size:3.75px">On</tspan></text>
    <ellipse
       style="fill:none;fill-opacity:1;stroke:#000000;stroke-width:1;stroke-miterlimit:4;stroke-dasharray:none;stroke-dashoffset:0;stroke-opacity:1"
       id="path4211-6-7"
       cx="488.45615"
       cy="51.477962"
       rx="7"
       ry="6.5" />
    <ellipse
       style="fill:none;fill-opacity:1;stroke:#000000;stroke-width:1;stroke-miterlimit:4;stroke-dasharray:none;stroke-dashoffset:0;stroke-opacity:1"
       id="path4211-2-6-0"
       cx="508.41339"
       cy="51.462582"
       rx="7"
       ry="6.5" />
    <ellipse
       style="fill:none;fill-opacity:1;stroke:#000000;stroke-width:1;stroke-miterlimit:4;stroke-dasharray:none;stroke-dashoffset:0;stroke-opacity:1"
       id="path4211-4-9-2"
       cx="528.52313"
       cy="51.558353"
       rx="7"
       ry="6.5" />
    <text
       xml:space="preserve"
       style="font-style:normal;font-weight:normal;font-size:13.75px;line-height:125%;font-family:sans-serif;letter-spacing:0px;word-spacing:0px;fill:#000000;fill-opacity:1;stroke:none;stroke-width:1px;stroke-linecap:butt;stroke-linejoin:miter;stroke-opacity:1"
       x="481.93332"
       y="62.932621"
       id="text4346-7-6"
       sodipodi:linespacing="125%"><tspan
         sodipodi:role="line"
         id="tspan4348-79-2"
         x="481.93332"
         y="62.932621"
         style="font-size:3.75px">Param1</tspan></text>
    <text
       xml:space="preserve"
       style="font-style:normal;font-weight:normal;font-size:13.75px;line-height:125%;font-family:sans-serif;letter-spacing:0px;word-spacing:0px;fill:#000000;fill-opacity:1;stroke:none;stroke-width:1px;stroke-linecap:butt;stroke-linejoin:miter;stroke-opacity:1"
       x="501.9169"
       y="62.814636"
       id="text4346-9-7-2"
       sodipodi:linespacing="125%"><tspan
         sodipodi:role="line"
         id="tspan4348-9-8-6"
         x="501.9169"
         y="62.814636"
         style="font-size:3.75px">Param2</tspan></text>
    <text
       xml:space="preserve"
       style="font-style:normal;font-weight:normal;font-size:13.75px;line-height:125%;font-family:sans-serif;letter-spacing:0px;word-spacing:0px;fill:#000000;fill-opacity:1;stroke:none;stroke-width:1px;stroke-linecap:butt;stroke-linejoin:miter;stroke-opacity:1"
       x="522.41327"
       y="62.834099"
       id="text4346-6-03-8"
       sodipodi:linespacing="125%"><tspan
         sodipodi:role="line"
         id="tspan4348-4-2-4"
         x="522.41327"
         y="62.834099"
         style="font-size:3.75px">Param3</tspan></text>
    <path
       style="fill:none;fill-opacity:1;stroke:#000000;stroke-width:0.5;stroke-miterlimit:4;stroke-dasharray:none;stroke-dashoffset:0;stroke-opacity:1"
       id="path4677-7-8"
       d="m 484.60676,53.549013 c 0.22514,0.118737 0.4457,0.246332 0.66944,0.368141 0.16638,0.102264 0.33879,0.195866 0.51548,0.279171 0.0921,0.04856 0.0463,0.02604 0.13705,0.06789 0,0 -0.77973,0.514854 -0.77973,0.514854 l 0,0 c -0.0909,-0.04524 -0.0453,-0.02216 -0.13657,-0.06926 -0.17401,-0.08896 -0.34574,-0.182815 -0.51109,-0.287124 -0.22214,-0.123206 -0.43984,-0.254992 -0.67451,-0.353911 0,0 0.77993,-0.519761 0.77993,-0.519761 z"
       inkscape:connector-curvature="0" />
    <path
       style="fill:none;fill-opacity:1;stroke:#000000;stroke-width:0.5;stroke-miterlimit:4;stroke-dasharray:none;stroke-dashoffset:0;stroke-opacity:1"
       id="path4677-5-2"
       d="m 505.41736,54.821856 c 0.22514,0.118737 0.4457,0.246332 0.66944,0.368141 0.16638,0.102264 0.33879,0.195866 0.51548,0.279171 0.0921,0.04856 0.0463,0.02604 0.13705,0.06789 0,0 -0.77973,0.514854 -0.77973,0.514854 l 0,0 c -0.0909,-0.04524 -0.0453,-0.02216 -0.13657,-0.06926 -0.17401,-0.08896 -0.34574,-0.182815 -0.51109,-0.287124 -0.22214,-0.123206 -0.43984,-0.254992 -0.67451,-0.353911 0,0 0.77993,-0.519761 0.77993,-0.519761 z"
       inkscape:connector-curvature="0" />
    <path
       style="fill:none;fill-opacity:1;stroke:#000000;stroke-width:0.5;stroke-miterlimit:4;stroke-dasharray:none;stroke-dashoffset:0;stroke-opacity:1"
       id="path4677-26-3"
       d="m 524.50523,48.266017 c 0.22514,0.118737 0.4457,0.246332 0.66944,0.368141 0.16638,0.102264 0.33879,0.195866 0.51548,0.279171 0.0921,0.04856 0.0463,0.02604 0.13705,0.06789 0,0 -0.77973,0.514854 -0.77973,0.514854 l 0,0 c -0.0909,-0.04524 -0.0453,-0.02216 -0.13657,-0.06926 -0.17401,-0.08896 -0.34574,-0.182815 -0.51109,-0.287124 -0.22214,-0.123206 -0.43984,-0.254992 -0.67451,-0.353911 0,0 0.77993,-0.519761 0.77993,-0.519761 z"
       inkscape:connector-curvature="0" />
  </g>
</svg>
